HIERARCHY
ROOT hip
{
  OFFSET 0.00112043 5.09927 -9.65472
  CHANNELS 6 Xposition Yposition Zposition Zrotation Xrotation Yrotation
  JOINT abdomen
  {
    OFFSET 0 -1.186 -1.5018
    CHANNELS 3 Zrotation Xrotation Yrotation
    JOINT abdomen2
    {
      OFFSET 0 9.964 0.2134
      CHANNELS 3 Zrotation Xrotation Yrotation
      JOINT chest
      {
        OFFSET 0 13.134 -3.2573
        CHANNELS 3 Zrotation Xrotation Yrotation
        JOINT neck
        {
          OFFSET 0 20.686 -1.6905
          CHANNELS 3 Zrotation Xrotation Yrotation
          JOINT head
          {
            OFFSET 0 7.238 -0.1237
            CHANNELS 3 Zrotation Xrotation Yrotation
            End Site
            {
              OFFSET 0 0 0
            }
          }
        }
        JOINT lCollar
        {
          OFFSET 1.7069 20.075 5.0056
          CHANNELS 3 Zrotation Xrotation Yrotation
          JOINT lShldr
          {
            OFFSET 13.6458 -0.047 -4.849
            CHANNELS 3 Zrotation Xrotation Yrotation
            JOINT lForeArm
            {
              OFFSET 28.3255 -0.9759 2.2888
              CHANNELS 3 Zrotation Xrotation Yrotation
              JOINT lHand
              {
                OFFSET 22.1583 -0.53 10.8316
                CHANNELS 3 Zrotation Xrotation Yrotation
                JOINT lThumb1
                {
                  OFFSET 0.786 0.112 2.5817
                  CHANNELS 3 Zrotation Xrotation Yrotation
                  JOINT lThumb2
                  {
                    OFFSET 0.3601 -0.878 4.2331
                    CHANNELS 3 Zrotation Xrotation Yrotation
                    JOINT lThumb2_End
                    {
                      OFFSET 1.8127 -1.216 2.2227
                      CHANNELS 3 Zrotation Xrotation Yrotation
                      End Site
                      {
                        OFFSET 0.0181 -0.0122 0.0222
                      }
                    }
                  }
                }
                JOINT lCarpal1
                {
                  OFFSET 0.9571 1.114 1.7695
                  CHANNELS 3 Zrotation Xrotation Yrotation
                  JOINT lIndex1
                  {
                    OFFSET 4.1246 0.487 4.1451
                    CHANNELS 3 Zrotation Xrotation Yrotation
                    JOINT lIndex2
                    {
                      OFFSET 3.4052 -1.454 2.7682
                      CHANNELS 3 Zrotation Xrotation Yrotation
                      JOINT lIndex2_End
                      {
                        OFFSET 1.4531 -1.795 1.2713
                        CHANNELS 3 Zrotation Xrotation Yrotation
                        End Site
                        {
                          OFFSET 0.0145 -0.0179 0.0127
                        }
                      }
                    }
                  }
                  JOINT lMid1
                  {
                    OFFSET 5.6954 0.21 2.1184
                    CHANNELS 3 Zrotation Xrotation Yrotation
                    JOINT lMid2
                    {
                      OFFSET 3.9766 -1.54 2.3863
                      CHANNELS 3 Zrotation Xrotation Yrotation
                      JOINT lMid2_End
                      {
                        OFFSET 1.4042 -1.926 1.125
                        CHANNELS 3 Zrotation Xrotation Yrotation
                        End Site
                        {
                          OFFSET 0.014 -0.0193 0.0113
                        }
                      }
                    }
                  }
                }
                JOINT lCarpal2
                {
                  OFFSET 2.0956 0.66 -0.3894
                  CHANNELS 3 Zrotation Xrotation Yrotation
                  JOINT lRing1
                  {
                    OFFSET 5.0395 -0.09 2.4971
                    CHANNELS 3 Zrotation Xrotation Yrotation
                    JOINT lRing2
                    {
                      OFFSET 3.7921 -1.552 1.4806
                      CHANNELS 3 Zrotation Xrotation Yrotation
                      JOINT lRing2_End
                      {
                        OFFSET 1.4655 -1.808 0.9609
                        CHANNELS 3 Zrotation Xrotation Yrotation
                        End Site
                        {
                          OFFSET 0.0147 -0.0181 0.0096
                        }
                      }
                    }
                  }
                  JOINT lPinky1
                  {
                    OFFSET 4.9141 -1.269 0.3591
                    CHANNELS 3 Zrotation Xrotation Yrotation
                    JOINT lPinky2
                    {
                      OFFSET 3.1477 -1.685 0.8462
                      CHANNELS 3 Zrotation Xrotation Yrotation
                      JOINT lPinky2_End
                      {
                        OFFSET 0.8055 -1.585 0.7955
                        CHANNELS 3 Zrotation Xrotation Yrotation
                        End Site
                        {
                          OFFSET 0.0081 -0.0158 0.008
                        }
                      }
                    }
                  }
                }
              }
            }
          }
        }
        JOINT rCollar
        {
          OFFSET -1.7069 20.075 5.0056
          CHANNELS 3 Zrotation Xrotation Yrotation
          JOINT rShldr
          {
            OFFSET -13.6458 -0.047 -4.849
            CHANNELS 3 Zrotation Xrotation Yrotation
            JOINT rForeArm
            {
              OFFSET -28.3255 -0.9759 2.2888
              CHANNELS 3 Zrotation Xrotation Yrotation
              JOINT rHand
              {
                OFFSET -22.1583 -0.53 10.8316
                CHANNELS 3 Zrotation Xrotation Yrotation
                JOINT rThumb1
                {
                  OFFSET -0.786 0.112 2.5817
                  CHANNELS 3 Zrotation Xrotation Yrotation
                  JOINT rThumb2
                  {
                    OFFSET -0.3601 -0.878 4.2331
                    CHANNELS 3 Zrotation Xrotation Yrotation
                    JOINT rThumb2_End
                    {
                      OFFSET -1.8127 -1.216 2.2227
                      CHANNELS 3 Zrotation Xrotation Yrotation
                      End Site
                      {
                        OFFSET -0.0181 -0.0122 0.0222
                      }
                    }
                  }
                }
                JOINT rCarpal1
                {
                  OFFSET -0.9571 1.114 1.7695
                  CHANNELS 3 Zrotation Xrotation Yrotation
                  JOINT rIndex1
                  {
                    OFFSET -4.1246 0.487 4.1451
                    CHANNELS 3 Zrotation Xrotation Yrotation
                    JOINT rIndex2
                    {
                      OFFSET -3.4052 -1.454 2.7682
                      CHANNELS 3 Zrotation Xrotation Yrotation
                      JOINT rIndex2_End
                      {
                        OFFSET -1.4531 -1.795 1.2713
                        CHANNELS 3 Zrotation Xrotation Yrotation
                        End Site
                        {
                          OFFSET -0.0145 -0.018 0.0127
                        }
                      }
                    }
                  }
                  JOINT rMid1
                  {
                    OFFSET -5.6954 0.21 2.1184
                    CHANNELS 3 Zrotation Xrotation Yrotation
                    JOINT rMid2
                    {
                      OFFSET -3.9766 -1.54 2.3863
                      CHANNELS 3 Zrotation Xrotation Yrotation
                      JOINT rMid2_End
                      {
                        OFFSET -1.4042 -1.926 1.125
                        CHANNELS 3 Zrotation Xrotation Yrotation
                        End Site
                        {
                          OFFSET -0.014 -0.0193 0.0113
                        }
                      }
                    }
                  }
                }
                JOINT rCarpal2
                {
                  OFFSET -2.0956 0.66 -0.3894
                  CHANNELS 3 Zrotation Xrotation Yrotation
                  JOINT rRing1
                  {
                    OFFSET -5.0395 -0.09 2.4971
                    CHANNELS 3 Zrotation Xrotation Yrotation
                    JOINT rRing2
                    {
                      OFFSET -3.7921 -1.552 1.4806
                      CHANNELS 3 Zrotation Xrotation Yrotation
                      JOINT rRing2_End
                      {
                        OFFSET -1.4655 -1.808 0.9609
                        CHANNELS 3 Zrotation Xrotation Yrotation
                        End Site
                        {
                          OFFSET -0.0147 -0.0181 0.0096
                        }
                      }
                    }
                  }
                  JOINT rPinky1
                  {
                    OFFSET -4.9141 -1.269 0.3592
                    CHANNELS 3 Zrotation Xrotation Yrotation
                    JOINT rPinky2
                    {
                      OFFSET -3.1477 -1.685 0.8462
                      CHANNELS 3 Zrotation Xrotation Yrotation
                      JOINT rPinky2_End
                      {
                        OFFSET -0.8055 -1.585 0.7955
                        CHANNELS 3 Zrotation Xrotation Yrotation
                        End Site
                        {
                          OFFSET -0.0081 -0.0158 0.008
                        }
                      }
                    }
                  }
                }
              }
            }
          }
        }
      }
    }
  }
  JOINT lThigh
  {
    OFFSET 8.367 -8.2066 0.5982
    CHANNELS 3 Zrotation Xrotation Yrotation
    JOINT lShin
    {
      OFFSET 2.1923 -43.463 -0.4932
      CHANNELS 3 Zrotation Xrotation Yrotation
      JOINT lFoot
      {
        OFFSET 0.7333 -45.8593 -2.6451
        CHANNELS 3 Zrotation Xrotation Yrotation
        End Site
        {
          OFFSET 2.6618 -4.2699 12.3931
        }
      }
    }
  }
  JOINT rThigh
  {
    OFFSET -8.367 -8.2066 0.5982
    CHANNELS 3 Zrotation Xrotation Yrotation
    JOINT rShin
    {
      OFFSET -2.1923 -43.463 -0.4931
      CHANNELS 3 Zrotation Xrotation Yrotation
      JOINT rFoot
      {
        OFFSET -0.7333 -45.8593 -2.6451
        CHANNELS 3 Zrotation Xrotation Yrotation
        End Site
        {
          OFFSET -2.6618 -4.2699 12.3931
        }
      }
    }
  }
}
MOTION
Frames:	5
Frame Time:	0.0333333
-0.442253 -0.249175 37.1455 -0.350155 -80.7422 -175.61 3.66118 1.26507 3.00743 7.25396 2.71787 5.93038 7.25396 2.71787 5.93039 -10.1504 9.83688 23.7501 -6.02431 4.96819 36.1219 4.3065 -38.6633 26.9327 -52.9819 -3.13094 -31.3569 52.7735 -10.5332 -77.4825 -79.4983 -81.5403 -71.0853 1.59028e-015 -9.93923e-015 -1.59028e-015 1.59028e-015 3.97569e-016 -3.18055e-015 -1.54487e-031 -5.56597e-015 -1.59028e-015 3.18055e-015 -3.97569e-016 -1.59028e-015 1.59028e-015 2.38542e-015 1.59028e-015 -1.59028e-015 -1.19271e-015 -0 -4.77083e-015 -1.19271e-015 -0 1.59028e-015 2.38542e-015 1.59028e-015 -1.59028e-015 -1.19271e-015 -0 -4.77083e-015 -1.19271e-015 -0 3.18055e-015 -3.97569e-016 -1.59028e-015 1.59028e-015 2.38542e-015 1.59028e-015 -1.59028e-015 -1.19271e-015 -0 -4.77083e-015 -1.19271e-015 -0 1.59028e-015 2.38542e-015 1.59028e-015 -1.59028e-015 -1.19271e-015 -0 -4.77083e-015 -1.19271e-015 -0 -30.8853 -41.6736 -29.7582 53.5813 3.31575 38.9407 0.0718038 12.7271 103.389 -29.4931 -0.976455 -37.9833 -3.58805e-006 -3.57725e-006 -6.19472e-006 1.19271e-015 -1.98785e-015 3.18055e-015 1.59028e-015 -1.98785e-015 3.18055e-015 3.97569e-016 2.78299e-015 -6.36111e-015 -3.58805e-006 -3.57725e-006 -6.19472e-006 1.59028e-015 1.59028e-015 3.18055e-015 3.97569e-015 -1.39149e-015 6.36111e-015 -3.58805e-006 -3.57725e-006 -6.19472e-006 1.59028e-015 1.59028e-015 3.18055e-015 3.97569e-015 -1.39149e-015 6.36111e-015 3.97569e-016 2.78299e-015 -6.36111e-015 -3.58805e-006 -3.57725e-006 -6.19472e-006 1.59028e-015 1.59028e-015 3.18055e-015 3.97569e-015 -1.39149e-015 6.36111e-015 -3.58805e-006 -3.57725e-006 -6.19472e-006 1.59028e-015 1.59028e-015 3.18055e-015 3.97569e-015 -1.39149e-015 6.36111e-015 2.5799 -1.70938 1.18116 2.42522 16.3954 -0.44524 17.9396 21.9241 -1.00855 -3.28787 -4.10267 0.403112 3.12076 20.1449 -4.76708 -19.9939 39.4852 15.0613 
-0.441435 -0.258548 37.1466 -0.345969 -80.7902 -175.632 3.66118 1.26507 3.00742 7.25396 2.71787 5.93038 7.25396 2.71788 5.93038 -10.1506 9.83593 23.7502 -6.02423 4.96812 36.4221 4.23439 -38.5983 26.8113 -52.9794 -3.13998 -31.3508 52.7735 -10.5332 -77.4825 -79.4983 -81.5403 -71.0853 -3.53113e-031 -6.36111e-015 -3.18055e-015 -3.18055e-015 -1.03368e-014 -0 1.59028e-015 -7.15625e-015 -3.18055e-015 -3.31043e-031 -5.96354e-015 -3.18055e-015 -8.82781e-032 -3.18055e-015 -1.59028e-015 3.18055e-015 -9.93923e-015 -3.18055e-015 1.59028e-015 -7.15625e-015 -3.18055e-015 -8.82781e-032 -3.18055e-015 -1.59028e-015 3.18055e-015 -9.93923e-015 -3.18055e-015 1.59028e-015 -7.15625e-015 -3.18055e-015 -3.31043e-031 -5.96354e-015 -3.18055e-015 -8.82781e-032 -3.18055e-015 -1.59028e-015 3.18055e-015 -9.93923e-015 -3.18055e-015 1.59028e-015 -7.15625e-015 -3.18055e-015 -8.82781e-032 -3.18055e-015 -1.59028e-015 3.18055e-015 -9.93923e-015 -3.18055e-015 1.59028e-015 -7.15625e-015 -3.18055e-015 -30.8021 -41.579 -29.6436 53.5796 3.30249 38.9345 0.0742801 12.7233 103.368 -29.4931 -0.976458 -37.9833 -1.59028e-015 -2.38542e-015 -6.36111e-015 -3.97569e-016 -4.37326e-015 3.18055e-015 3.97569e-016 -1.98785e-015 3.18055e-015 -1.59028e-015 1.98785e-015 -9.54166e-015 -1.98785e-015 -1.59028e-015 -3.18055e-015 -1.19271e-015 -2.38542e-015 6.36111e-015 -7.95139e-016 2.38542e-015 3.18055e-015 -1.98785e-015 -1.59028e-015 -3.18055e-015 -1.19271e-015 -2.38542e-015 6.36111e-015 -7.95139e-016 2.38542e-015 3.18055e-015 -1.59028e-015 1.98785e-015 -9.54166e-015 -1.98785e-015 -1.59028e-015 -3.18055e-015 -1.19271e-015 -2.38542e-015 6.36111e-015 -7.95139e-016 2.38542e-015 3.18055e-015 -1.98785e-015 -1.59028e-015 -3.18055e-015 -1.19271e-015 -2.38542e-015 6.36111e-015 -7.95139e-016 2.38542e-015 3.18055e-015 2.57933 -1.71094 1.18109 2.42523 16.3947 -0.445322 17.9404 21.9263 -1.00906 -3.29542 -4.10642 0.407451 3.12071 20.1448 -4.76737 -19.9945 39.4845 15.0614 
-0.440636 -0.267769 37.1476 -0.341783 -80.8375 -175.653 3.66118 1.26506 3.00743 7.25396 2.71788 5.93038 7.25396 2.71787 5.93038 -10.1506 9.83585 23.7502 -6.02415 4.96806 36.7222 4.16251 -38.5333 26.6901 -52.977 -3.149 -31.3448 52.7735 -10.5332 -77.4825 -79.4983 -81.5403 -71.0853 1.59028e-015 -5.1684e-015 1.59028e-015 1.59028e-015 7.95139e-016 6.36111e-015 1.59028e-015 -4.37326e-015 3.18055e-015 3.18055e-015 4.37326e-015 -1.59028e-015 1.59028e-015 6.75868e-015 4.77083e-015 2.75869e-031 -9.93923e-015 1.59028e-015 -4.77083e-015 -5.56597e-015 6.36111e-015 1.59028e-015 6.75868e-015 4.77083e-015 2.75869e-031 -9.93923e-015 1.59028e-015 -4.77083e-015 -5.56597e-015 6.36111e-015 3.18055e-015 4.37326e-015 -1.59028e-015 1.59028e-015 6.75868e-015 4.77083e-015 2.75869e-031 -9.93923e-015 1.59028e-015 -4.77083e-015 -5.56597e-015 6.36111e-015 1.59028e-015 6.75868e-015 4.77083e-015 2.75869e-031 -9.93923e-015 1.59028e-015 -4.77083e-015 -5.56597e-015 6.36111e-015 -30.7192 -41.4842 -29.5294 53.5778 3.28924 38.9282 0.0767601 12.7194 103.346 -29.4931 -0.976458 -37.9833 -3.97569e-016 2.78299e-015 3.18055e-015 8.07842e-007 3.98758e-006 -9.44891e-007 4.68782e-006 -2.96681e-006 -1.9221e-006 -1.19271e-015 2.98177e-015 -0 -7.95139e-016 3.37934e-015 3.18055e-015 8.07842e-007 3.98758e-006 -9.44891e-007 4.68782e-006 -2.96681e-006 -1.9221e-006 -7.95139e-016 3.37934e-015 3.18055e-015 8.07842e-007 3.98758e-006 -9.44891e-007 4.68782e-006 -2.96681e-006 -1.9221e-006 -1.19271e-015 2.98177e-015 -0 -7.95139e-016 3.37934e-015 3.18055e-015 8.07842e-007 3.98758e-006 -9.44891e-007 4.68782e-006 -2.96681e-006 -1.9221e-006 -7.95139e-016 3.37934e-015 3.18055e-015 8.07842e-007 3.98758e-006 -9.44891e-007 4.68782e-006 -2.96681e-006 -1.9221e-006 2.57882 -1.7112 1.1811 2.42517 16.3926 -0.445435 17.9411 21.9286 -1.00959 -3.30295 -4.11007 0.411777 3.1206 20.1444 -4.7676 -19.995 39.484 15.0616 
-0.439852 -0.276853 37.1487 -0.337763 -80.8841 -175.674 3.66118 1.26507 3.00743 7.25396 2.71788 5.93038 7.25396 2.71786 5.93039 -10.1505 9.83644 23.7501 -6.02407 4.96801 37.0224 4.09087 -38.4681 26.5691 -52.9745 -3.15802 -31.3388 52.7735 -10.5332 -77.4825 -79.4985 -81.5403 -71.0854 -2.29249e-006 -1.98061e-006 7.18806e-007 -1.88113e-006 -3.70024e-006 -4.05624e-006 6.36111e-015 -7.55382e-015 -0 -1.59028e-015 4.77083e-015 1.59028e-015 -2.29249e-006 -1.98061e-006 7.18806e-007 -1.88113e-006 -3.70024e-006 -4.05624e-006 7.95139e-015 -1.51076e-014 -3.18055e-015 -2.29249e-006 -1.98061e-006 7.18806e-007 -1.88113e-006 -3.70024e-006 -4.05624e-006 7.95139e-015 -1.51076e-014 -3.18055e-015 -1.59028e-015 4.77083e-015 1.59028e-015 -2.29249e-006 -1.98061e-006 7.18806e-007 -1.88113e-006 -3.70024e-006 -4.05624e-006 7.95139e-015 -1.51076e-014 -3.18055e-015 -2.29249e-006 -1.98061e-006 7.18806e-007 -1.88113e-006 -3.70024e-006 -4.05624e-006 7.95139e-015 -1.51076e-014 -3.18055e-015 -30.6367 -41.3893 -29.4155 53.5761 3.276 38.9219 0.0792359 12.7156 103.325 -29.4931 -0.976443 -37.9833 -3.97569e-016 -5.1684e-015 6.36111e-015 3.31043e-032 -5.96354e-016 3.18055e-015 -7.95139e-016 -9.34288e-015 3.18055e-015 1.98785e-015 -1.98785e-016 3.18055e-015 7.95139e-016 -2.38542e-015 -3.18055e-015 1.59028e-015 3.97569e-016 -0 1.59028e-015 -1.98785e-016 -0 7.95139e-016 -2.38542e-015 -3.18055e-015 1.59028e-015 3.97569e-016 -0 1.59028e-015 -1.98785e-016 -0 1.98785e-015 -1.98785e-016 3.18055e-015 7.95139e-016 -2.38542e-015 -3.18055e-015 1.59028e-015 3.97569e-016 -0 1.59028e-015 -1.98785e-016 -0 7.95139e-016 -2.38542e-015 -3.18055e-015 1.59028e-015 3.97569e-016 -0 1.59028e-015 -1.98785e-016 -0 2.5783 -1.71153 1.18109 2.42512 16.3907 -0.445534 17.9419 21.9308 -1.01009 -3.31048 -4.11383 0.416128 3.1205 20.1442 -4.76787 -19.9955 39.4834 15.0617 
-0.439083 -0.285784 37.1497 -0.333898 -80.93 -175.695 3.66118 1.26509 3.00742 7.25396 2.71785 5.93038 7.25396 2.71789 5.93038 -10.1504 9.83743 23.7501 -6.02397 4.96796 37.3225 4.01947 -38.4028 26.4483 -52.9721 -3.16705 -31.3328 52.7735 -10.5332 -77.4825 -79.498 -81.5403 -71.0851 -6.62086e-031 7.95139e-015 4.77083e-015 1.59028e-015 2.38542e-015 1.59028e-015 1.59028e-015 3.57812e-015 4.77083e-015 1.59028e-015 7.55382e-015 1.59028e-015 4.77083e-015 1.74931e-014 6.36111e-015 1.59028e-015 -7.95139e-015 -0 3.18055e-015 -4.37326e-015 6.36111e-015 4.77083e-015 1.74931e-014 6.36111e-015 1.59028e-015 -7.95139e-015 -0 3.18055e-015 -4.37326e-015 6.36111e-015 1.59028e-015 7.55382e-015 1.59028e-015 4.77083e-015 1.74931e-014 6.36111e-015 1.59028e-015 -7.95139e-015 -0 3.18055e-015 -4.37326e-015 6.36111e-015 4.77083e-015 1.74931e-014 6.36111e-015 1.59028e-015 -7.95139e-015 -0 3.18055e-015 -4.37326e-015 6.36111e-015 -30.5546 -41.2943 -29.302 53.5743 3.26274 38.9156 0.0817088 12.7117 103.303 -29.4931 -0.976425 -37.9833 7.95139e-016 1.96797e-014 6.36111e-015 -7.95139e-016 1.88845e-014 3.18055e-015 -1.19271e-015 2.22639e-014 6.36111e-015 1.59028e-015 -5.96354e-016 3.18055e-015 -7.95139e-016 1.96797e-014 6.36111e-015 -1.0483e-030 1.88845e-014 3.18055e-015 7.95139e-016 2.14687e-014 3.18055e-015 -7.95139e-016 1.96797e-014 6.36111e-015 -1.0483e-030 1.88845e-014 3.18055e-015 7.95139e-016 2.14687e-014 3.18055e-015 1.59028e-015 -5.96354e-016 3.18055e-015 -7.95139e-016 1.96797e-014 6.36111e-015 -1.0483e-030 1.88845e-014 3.18055e-015 7.95139e-016 2.14687e-014 3.18055e-015 -7.95139e-016 1.96797e-014 6.36111e-015 -1.0483e-030 1.88845e-014 3.18055e-015 7.95139e-016 2.14687e-014 3.18055e-015 2.57779 -1.7118 1.18109 2.42507 16.3888 -0.445619 17.9426 21.933 -1.01057 -3.3181 -4.1167 0.420415 3.12045 20.1431 -4.76804 -19.996 39.4828 15.0618 
